M48
;DRILL file {Pcbnew (2013-may-18)-stable} date ven. 03 oct. 2014 17:15:52 CEST
;FORMAT={-:-/ absolute / metric / decimal}
FMAT,2
METRIC,TZ
T1C0.635
T2C0.813
T3C1.270
T4C1.524
%
G90
G05
M71
T1
X15.24Y-40.64
X33.02Y-48.26
X33.02Y-63.5
X33.02Y-66.04
X33.02Y-81.28
X35.56Y-73.66
X35.56Y-86.36
X35.704Y-40.496
X36.83Y-48.26
X38.1Y-71.12
X46.99Y-73.66
X49.53Y-48.26
X52.07Y-71.12
X52.07Y-88.9
X57.15Y-91.44
X64.77Y-73.66
X67.31Y-72.39
X67.31Y-77.47
X67.31Y-88.9
X90.17Y-72.39
X90.17Y-77.47
X90.17Y-91.44
T2
X20.32Y-38.1
X20.32Y-55.88
X20.32Y-73.66
X20.32Y-91.44
X27.94Y-30.48
X27.94Y-33.02
X27.94Y-38.1
X27.94Y-48.26
X27.94Y-50.8
X27.94Y-55.88
X27.94Y-66.04
X27.94Y-68.58
X27.94Y-73.66
X27.94Y-83.82
X27.94Y-86.36
X27.94Y-91.44
X39.37Y-76.2
X39.37Y-83.82
X41.91Y-76.2
X41.91Y-83.82
X44.45Y-76.2
X44.45Y-83.82
X46.99Y-76.2
X46.99Y-83.82
X49.53Y-76.2
X49.53Y-83.82
X52.07Y-76.2
X52.07Y-83.82
X52.07Y-93.98
X54.61Y-76.2
X54.61Y-83.82
X54.61Y-93.98
X54.61Y-99.06
X57.15Y-48.26
X57.15Y-76.2
X57.15Y-83.82
X57.15Y-93.98
X57.15Y-99.06
X59.69Y-64.77
X59.69Y-99.06
X62.23Y-99.06
X64.77Y-48.26
X64.77Y-99.06
X67.31Y-64.77
X67.31Y-93.98
X73.66Y-64.77
X73.66Y-67.31
X73.66Y-69.85
X73.66Y-72.39
X73.66Y-74.93
X73.66Y-77.47
X73.66Y-80.01
X73.66Y-86.36
X74.93Y-93.98
X81.28Y-64.77
X81.28Y-67.31
X81.28Y-69.85
X81.28Y-72.39
X81.28Y-74.93
X81.28Y-77.47
X81.28Y-80.01
X81.28Y-86.36
X87.63Y-69.85
X87.63Y-77.47
X87.63Y-80.01
X87.63Y-87.63
T3
X57.15Y-55.88
X67.31Y-53.34
X67.31Y-58.42
T4
X19.05Y-27.94
X19.05Y-33.02
X19.05Y-45.72
X19.05Y-50.8
X19.05Y-63.5
X19.05Y-68.58
X19.05Y-81.28
X19.05Y-86.36
T0
M30
