G04 (created by PCBNEW (2013-may-18)-stable) date ven. 03 oct. 2014 17:18:10 CEST*
%MOIN*%
G04 Gerber Fmt 3.4, Leading zero omitted, Abs format*
%FSLAX34Y34*%
G01*
G70*
G90*
G04 APERTURE LIST*
%ADD10C,0.005*%
%ADD11C,0.00787402*%
%ADD12C,0.011811*%
G04 APERTURE END LIST*
G54D10*
G54D11*
X5875Y-15875D02*
X6125Y-16125D01*
X6125Y-15875D02*
X5875Y-16125D01*
X12875Y-18875D02*
X13125Y-19125D01*
X13125Y-18875D02*
X12875Y-19125D01*
X12875Y-24875D02*
X13125Y-25125D01*
X13125Y-24875D02*
X12875Y-25125D01*
X12875Y-25875D02*
X13125Y-26125D01*
X13125Y-25875D02*
X12875Y-26125D01*
X12875Y-31875D02*
X13125Y-32125D01*
X13125Y-31875D02*
X12875Y-32125D01*
X13875Y-28875D02*
X14125Y-29125D01*
X14125Y-28875D02*
X13875Y-29125D01*
X13875Y-33875D02*
X14125Y-34125D01*
X14125Y-33875D02*
X13875Y-34125D01*
X13931Y-15818D02*
X14181Y-16068D01*
X14181Y-15818D02*
X13931Y-16068D01*
X14375Y-18875D02*
X14625Y-19125D01*
X14625Y-18875D02*
X14375Y-19125D01*
X14875Y-27875D02*
X15125Y-28125D01*
X15125Y-27875D02*
X14875Y-28125D01*
X18375Y-28875D02*
X18625Y-29125D01*
X18625Y-28875D02*
X18375Y-29125D01*
X19375Y-18875D02*
X19625Y-19125D01*
X19625Y-18875D02*
X19375Y-19125D01*
X20375Y-27875D02*
X20625Y-28125D01*
X20625Y-27875D02*
X20375Y-28125D01*
X20375Y-34875D02*
X20625Y-35125D01*
X20625Y-34875D02*
X20375Y-35125D01*
X22375Y-35875D02*
X22625Y-36125D01*
X22625Y-35875D02*
X22375Y-36125D01*
X25375Y-28875D02*
X25625Y-29125D01*
X25625Y-28875D02*
X25375Y-29125D01*
X26375Y-28375D02*
X26625Y-28625D01*
X26625Y-28375D02*
X26375Y-28625D01*
X26375Y-30375D02*
X26625Y-30625D01*
X26625Y-30375D02*
X26375Y-30625D01*
X26375Y-34875D02*
X26625Y-35125D01*
X26625Y-34875D02*
X26375Y-35125D01*
X35375Y-28375D02*
X35625Y-28625D01*
X35625Y-28375D02*
X35375Y-28625D01*
X35375Y-30375D02*
X35625Y-30625D01*
X35625Y-30375D02*
X35375Y-30625D01*
X35375Y-35875D02*
X35625Y-36125D01*
X35625Y-35875D02*
X35375Y-36125D01*
X8160Y-15000D02*
G75*
G03X8160Y-15000I-160J0D01*
G74*
G01*
X8160Y-22000D02*
G75*
G03X8160Y-22000I-160J0D01*
G74*
G01*
X8160Y-29000D02*
G75*
G03X8160Y-29000I-160J0D01*
G74*
G01*
X8160Y-36000D02*
G75*
G03X8160Y-36000I-160J0D01*
G74*
G01*
X11160Y-12000D02*
G75*
G03X11160Y-12000I-160J0D01*
G74*
G01*
X11160Y-13000D02*
G75*
G03X11160Y-13000I-160J0D01*
G74*
G01*
X11160Y-15000D02*
G75*
G03X11160Y-15000I-160J0D01*
G74*
G01*
X11160Y-19000D02*
G75*
G03X11160Y-19000I-160J0D01*
G74*
G01*
X11160Y-20000D02*
G75*
G03X11160Y-20000I-160J0D01*
G74*
G01*
X11160Y-22000D02*
G75*
G03X11160Y-22000I-160J0D01*
G74*
G01*
X11160Y-26000D02*
G75*
G03X11160Y-26000I-160J0D01*
G74*
G01*
X11160Y-27000D02*
G75*
G03X11160Y-27000I-160J0D01*
G74*
G01*
X11160Y-29000D02*
G75*
G03X11160Y-29000I-160J0D01*
G74*
G01*
X11160Y-33000D02*
G75*
G03X11160Y-33000I-160J0D01*
G74*
G01*
X11160Y-34000D02*
G75*
G03X11160Y-34000I-160J0D01*
G74*
G01*
X11160Y-36000D02*
G75*
G03X11160Y-36000I-160J0D01*
G74*
G01*
X15660Y-30000D02*
G75*
G03X15660Y-30000I-160J0D01*
G74*
G01*
X15660Y-33000D02*
G75*
G03X15660Y-33000I-160J0D01*
G74*
G01*
X16660Y-30000D02*
G75*
G03X16660Y-30000I-160J0D01*
G74*
G01*
X16660Y-33000D02*
G75*
G03X16660Y-33000I-160J0D01*
G74*
G01*
X17660Y-30000D02*
G75*
G03X17660Y-30000I-160J0D01*
G74*
G01*
X17660Y-33000D02*
G75*
G03X17660Y-33000I-160J0D01*
G74*
G01*
X18660Y-30000D02*
G75*
G03X18660Y-30000I-160J0D01*
G74*
G01*
X18660Y-33000D02*
G75*
G03X18660Y-33000I-160J0D01*
G74*
G01*
X19660Y-30000D02*
G75*
G03X19660Y-30000I-160J0D01*
G74*
G01*
X19660Y-33000D02*
G75*
G03X19660Y-33000I-160J0D01*
G74*
G01*
X20660Y-30000D02*
G75*
G03X20660Y-30000I-160J0D01*
G74*
G01*
X20660Y-33000D02*
G75*
G03X20660Y-33000I-160J0D01*
G74*
G01*
X20660Y-37000D02*
G75*
G03X20660Y-37000I-160J0D01*
G74*
G01*
X21660Y-30000D02*
G75*
G03X21660Y-30000I-160J0D01*
G74*
G01*
X21660Y-33000D02*
G75*
G03X21660Y-33000I-160J0D01*
G74*
G01*
X21660Y-37000D02*
G75*
G03X21660Y-37000I-160J0D01*
G74*
G01*
X21660Y-39000D02*
G75*
G03X21660Y-39000I-160J0D01*
G74*
G01*
X22660Y-19000D02*
G75*
G03X22660Y-19000I-160J0D01*
G74*
G01*
X22660Y-30000D02*
G75*
G03X22660Y-30000I-160J0D01*
G74*
G01*
X22660Y-33000D02*
G75*
G03X22660Y-33000I-160J0D01*
G74*
G01*
X22660Y-37000D02*
G75*
G03X22660Y-37000I-160J0D01*
G74*
G01*
X22660Y-39000D02*
G75*
G03X22660Y-39000I-160J0D01*
G74*
G01*
X23660Y-25500D02*
G75*
G03X23660Y-25500I-160J0D01*
G74*
G01*
X23660Y-39000D02*
G75*
G03X23660Y-39000I-160J0D01*
G74*
G01*
X24660Y-39000D02*
G75*
G03X24660Y-39000I-160J0D01*
G74*
G01*
X25660Y-19000D02*
G75*
G03X25660Y-19000I-160J0D01*
G74*
G01*
X25660Y-39000D02*
G75*
G03X25660Y-39000I-160J0D01*
G74*
G01*
X26660Y-25500D02*
G75*
G03X26660Y-25500I-160J0D01*
G74*
G01*
X26660Y-37000D02*
G75*
G03X26660Y-37000I-160J0D01*
G74*
G01*
X29160Y-25500D02*
G75*
G03X29160Y-25500I-160J0D01*
G74*
G01*
X29160Y-26500D02*
G75*
G03X29160Y-26500I-160J0D01*
G74*
G01*
X29160Y-27500D02*
G75*
G03X29160Y-27500I-160J0D01*
G74*
G01*
X29160Y-28500D02*
G75*
G03X29160Y-28500I-160J0D01*
G74*
G01*
X29160Y-29500D02*
G75*
G03X29160Y-29500I-160J0D01*
G74*
G01*
X29160Y-30500D02*
G75*
G03X29160Y-30500I-160J0D01*
G74*
G01*
X29160Y-31500D02*
G75*
G03X29160Y-31500I-160J0D01*
G74*
G01*
X29160Y-34000D02*
G75*
G03X29160Y-34000I-160J0D01*
G74*
G01*
X29660Y-37000D02*
G75*
G03X29660Y-37000I-160J0D01*
G74*
G01*
X32160Y-25500D02*
G75*
G03X32160Y-25500I-160J0D01*
G74*
G01*
X32160Y-26500D02*
G75*
G03X32160Y-26500I-160J0D01*
G74*
G01*
X32160Y-27500D02*
G75*
G03X32160Y-27500I-160J0D01*
G74*
G01*
X32160Y-28500D02*
G75*
G03X32160Y-28500I-160J0D01*
G74*
G01*
X32160Y-29500D02*
G75*
G03X32160Y-29500I-160J0D01*
G74*
G01*
X32160Y-30500D02*
G75*
G03X32160Y-30500I-160J0D01*
G74*
G01*
X32160Y-31500D02*
G75*
G03X32160Y-31500I-160J0D01*
G74*
G01*
X32160Y-34000D02*
G75*
G03X32160Y-34000I-160J0D01*
G74*
G01*
X34660Y-27500D02*
G75*
G03X34660Y-27500I-160J0D01*
G74*
G01*
X34660Y-30500D02*
G75*
G03X34660Y-30500I-160J0D01*
G74*
G01*
X34660Y-31500D02*
G75*
G03X34660Y-31500I-160J0D01*
G74*
G01*
X34660Y-34500D02*
G75*
G03X34660Y-34500I-160J0D01*
G74*
G01*
X22500Y-21750D02*
X22500Y-22250D01*
X22250Y-22000D02*
X22750Y-22000D01*
X26500Y-20750D02*
X26500Y-21250D01*
X26250Y-21000D02*
X26750Y-21000D01*
X26500Y-22750D02*
X26500Y-23250D01*
X26250Y-23000D02*
X26750Y-23000D01*
X7712Y-11212D02*
X7712Y-10787D01*
X7287Y-10787D01*
X7287Y-11212D01*
X7712Y-11212D01*
X7712Y-13212D02*
X7712Y-12787D01*
X7287Y-12787D01*
X7287Y-13212D01*
X7712Y-13212D01*
X7712Y-18212D02*
X7712Y-17787D01*
X7287Y-17787D01*
X7287Y-18212D01*
X7712Y-18212D01*
X7712Y-20212D02*
X7712Y-19787D01*
X7287Y-19787D01*
X7287Y-20212D01*
X7712Y-20212D01*
X7712Y-25212D02*
X7712Y-24787D01*
X7287Y-24787D01*
X7287Y-25212D01*
X7712Y-25212D01*
X7712Y-27212D02*
X7712Y-26787D01*
X7287Y-26787D01*
X7287Y-27212D01*
X7712Y-27212D01*
X7712Y-32212D02*
X7712Y-31787D01*
X7287Y-31787D01*
X7287Y-32212D01*
X7712Y-32212D01*
X7712Y-34212D02*
X7712Y-33787D01*
X7287Y-33787D01*
X7287Y-34212D01*
X7712Y-34212D01*
G54D12*
X1068Y-1777D02*
X1068Y-596D01*
X1349Y-596D01*
X1518Y-652D01*
X1631Y-764D01*
X1687Y-877D01*
X1743Y-1102D01*
X1743Y-1271D01*
X1687Y-1496D01*
X1631Y-1608D01*
X1518Y-1721D01*
X1349Y-1777D01*
X1068Y-1777D01*
X2249Y-1777D02*
X2249Y-989D01*
X2249Y-1214D02*
X2305Y-1102D01*
X2362Y-1046D01*
X2474Y-989D01*
X2587Y-989D01*
X2980Y-1777D02*
X2980Y-989D01*
X2980Y-596D02*
X2924Y-652D01*
X2980Y-708D01*
X3037Y-652D01*
X2980Y-596D01*
X2980Y-708D01*
X3712Y-1777D02*
X3599Y-1721D01*
X3543Y-1608D01*
X3543Y-596D01*
X4330Y-1777D02*
X4218Y-1721D01*
X4161Y-1608D01*
X4161Y-596D01*
X5680Y-1777D02*
X5680Y-596D01*
X6074Y-1439D01*
X6467Y-596D01*
X6467Y-1777D01*
X7536Y-1777D02*
X7536Y-1158D01*
X7480Y-1046D01*
X7367Y-989D01*
X7142Y-989D01*
X7030Y-1046D01*
X7536Y-1721D02*
X7424Y-1777D01*
X7142Y-1777D01*
X7030Y-1721D01*
X6974Y-1608D01*
X6974Y-1496D01*
X7030Y-1383D01*
X7142Y-1327D01*
X7424Y-1327D01*
X7536Y-1271D01*
X8098Y-989D02*
X8098Y-2170D01*
X8098Y-1046D02*
X8211Y-989D01*
X8436Y-989D01*
X8548Y-1046D01*
X8605Y-1102D01*
X8661Y-1214D01*
X8661Y-1552D01*
X8605Y-1664D01*
X8548Y-1721D01*
X8436Y-1777D01*
X8211Y-1777D01*
X8098Y-1721D01*
X9167Y-1664D02*
X9223Y-1721D01*
X9167Y-1777D01*
X9111Y-1721D01*
X9167Y-1664D01*
X9167Y-1777D01*
X9167Y-1046D02*
X9223Y-1102D01*
X9167Y-1158D01*
X9111Y-1102D01*
X9167Y-1046D01*
X9167Y-1158D01*
X-250Y-3654D02*
X0Y-3904D01*
X0Y-3654D02*
X-250Y-3904D01*
X1293Y-3076D02*
X1406Y-3076D01*
X1518Y-3132D01*
X1574Y-3188D01*
X1631Y-3301D01*
X1687Y-3526D01*
X1687Y-3807D01*
X1631Y-4032D01*
X1574Y-4145D01*
X1518Y-4201D01*
X1406Y-4257D01*
X1293Y-4257D01*
X1181Y-4201D01*
X1124Y-4145D01*
X1068Y-4032D01*
X1012Y-3807D01*
X1012Y-3526D01*
X1068Y-3301D01*
X1124Y-3188D01*
X1181Y-3132D01*
X1293Y-3076D01*
X2193Y-4145D02*
X2249Y-4201D01*
X2193Y-4257D01*
X2137Y-4201D01*
X2193Y-4145D01*
X2193Y-4257D01*
X3262Y-3076D02*
X3037Y-3076D01*
X2924Y-3132D01*
X2868Y-3188D01*
X2755Y-3357D01*
X2699Y-3582D01*
X2699Y-4032D01*
X2755Y-4145D01*
X2812Y-4201D01*
X2924Y-4257D01*
X3149Y-4257D01*
X3262Y-4201D01*
X3318Y-4145D01*
X3374Y-4032D01*
X3374Y-3751D01*
X3318Y-3638D01*
X3262Y-3582D01*
X3149Y-3526D01*
X2924Y-3526D01*
X2812Y-3582D01*
X2755Y-3638D01*
X2699Y-3751D01*
X4386Y-3470D02*
X4386Y-4257D01*
X4105Y-3020D02*
X3824Y-3863D01*
X4555Y-3863D01*
X5005Y-4257D02*
X5005Y-3470D01*
X5005Y-3582D02*
X5061Y-3526D01*
X5174Y-3470D01*
X5343Y-3470D01*
X5455Y-3526D01*
X5511Y-3638D01*
X5511Y-4257D01*
X5511Y-3638D02*
X5568Y-3526D01*
X5680Y-3470D01*
X5849Y-3470D01*
X5961Y-3526D01*
X6017Y-3638D01*
X6017Y-4257D01*
X6580Y-4257D02*
X6580Y-3470D01*
X6580Y-3582D02*
X6636Y-3526D01*
X6749Y-3470D01*
X6917Y-3470D01*
X7030Y-3526D01*
X7086Y-3638D01*
X7086Y-4257D01*
X7086Y-3638D02*
X7142Y-3526D01*
X7255Y-3470D01*
X7424Y-3470D01*
X7536Y-3526D01*
X7592Y-3638D01*
X7592Y-4257D01*
X9898Y-3020D02*
X8886Y-4538D01*
X11417Y-3076D02*
X11529Y-3076D01*
X11642Y-3132D01*
X11698Y-3188D01*
X11754Y-3301D01*
X11811Y-3526D01*
X11811Y-3807D01*
X11754Y-4032D01*
X11698Y-4145D01*
X11642Y-4201D01*
X11529Y-4257D01*
X11417Y-4257D01*
X11304Y-4201D01*
X11248Y-4145D01*
X11192Y-4032D01*
X11136Y-3807D01*
X11136Y-3526D01*
X11192Y-3301D01*
X11248Y-3188D01*
X11304Y-3132D01*
X11417Y-3076D01*
X12317Y-4145D02*
X12373Y-4201D01*
X12317Y-4257D01*
X12260Y-4201D01*
X12317Y-4145D01*
X12317Y-4257D01*
X13104Y-3076D02*
X13217Y-3076D01*
X13329Y-3132D01*
X13385Y-3188D01*
X13442Y-3301D01*
X13498Y-3526D01*
X13498Y-3807D01*
X13442Y-4032D01*
X13385Y-4145D01*
X13329Y-4201D01*
X13217Y-4257D01*
X13104Y-4257D01*
X12992Y-4201D01*
X12935Y-4145D01*
X12879Y-4032D01*
X12823Y-3807D01*
X12823Y-3526D01*
X12879Y-3301D01*
X12935Y-3188D01*
X12992Y-3132D01*
X13104Y-3076D01*
X13948Y-3188D02*
X14004Y-3132D01*
X14116Y-3076D01*
X14398Y-3076D01*
X14510Y-3132D01*
X14566Y-3188D01*
X14623Y-3301D01*
X14623Y-3413D01*
X14566Y-3582D01*
X13892Y-4257D01*
X14623Y-4257D01*
X15691Y-3076D02*
X15129Y-3076D01*
X15073Y-3638D01*
X15129Y-3582D01*
X15241Y-3526D01*
X15523Y-3526D01*
X15635Y-3582D01*
X15691Y-3638D01*
X15748Y-3751D01*
X15748Y-4032D01*
X15691Y-4145D01*
X15635Y-4201D01*
X15523Y-4257D01*
X15241Y-4257D01*
X15129Y-4201D01*
X15073Y-4145D01*
X16197Y-3076D02*
X16197Y-3301D01*
X16647Y-3076D02*
X16647Y-3301D01*
X18391Y-4707D02*
X18335Y-4651D01*
X18222Y-4482D01*
X18166Y-4370D01*
X18110Y-4201D01*
X18053Y-3920D01*
X18053Y-3695D01*
X18110Y-3413D01*
X18166Y-3245D01*
X18222Y-3132D01*
X18335Y-2964D01*
X18391Y-2907D01*
X18785Y-3188D02*
X18841Y-3132D01*
X18953Y-3076D01*
X19235Y-3076D01*
X19347Y-3132D01*
X19403Y-3188D01*
X19460Y-3301D01*
X19460Y-3413D01*
X19403Y-3582D01*
X18728Y-4257D01*
X19460Y-4257D01*
X19910Y-3188D02*
X19966Y-3132D01*
X20078Y-3076D01*
X20359Y-3076D01*
X20472Y-3132D01*
X20528Y-3188D01*
X20584Y-3301D01*
X20584Y-3413D01*
X20528Y-3582D01*
X19853Y-4257D01*
X20584Y-4257D01*
X21991Y-4257D02*
X21991Y-3076D01*
X22497Y-4257D02*
X22497Y-3638D01*
X22440Y-3526D01*
X22328Y-3470D01*
X22159Y-3470D01*
X22047Y-3526D01*
X21991Y-3582D01*
X23228Y-4257D02*
X23115Y-4201D01*
X23059Y-4145D01*
X23003Y-4032D01*
X23003Y-3695D01*
X23059Y-3582D01*
X23115Y-3526D01*
X23228Y-3470D01*
X23397Y-3470D01*
X23509Y-3526D01*
X23565Y-3582D01*
X23622Y-3695D01*
X23622Y-4032D01*
X23565Y-4145D01*
X23509Y-4201D01*
X23397Y-4257D01*
X23228Y-4257D01*
X24296Y-4257D02*
X24184Y-4201D01*
X24128Y-4088D01*
X24128Y-3076D01*
X25196Y-4201D02*
X25084Y-4257D01*
X24859Y-4257D01*
X24746Y-4201D01*
X24690Y-4088D01*
X24690Y-3638D01*
X24746Y-3526D01*
X24859Y-3470D01*
X25084Y-3470D01*
X25196Y-3526D01*
X25253Y-3638D01*
X25253Y-3751D01*
X24690Y-3863D01*
X25703Y-4201D02*
X25815Y-4257D01*
X26040Y-4257D01*
X26152Y-4201D01*
X26209Y-4088D01*
X26209Y-4032D01*
X26152Y-3920D01*
X26040Y-3863D01*
X25871Y-3863D01*
X25759Y-3807D01*
X25703Y-3695D01*
X25703Y-3638D01*
X25759Y-3526D01*
X25871Y-3470D01*
X26040Y-3470D01*
X26152Y-3526D01*
X26602Y-4707D02*
X26659Y-4651D01*
X26771Y-4482D01*
X26827Y-4370D01*
X26884Y-4201D01*
X26940Y-3920D01*
X26940Y-3695D01*
X26884Y-3413D01*
X26827Y-3245D01*
X26771Y-3132D01*
X26659Y-2964D01*
X26602Y-2907D01*
G54D11*
X0Y-5338D02*
G75*
G03X0Y-5338I-160J0D01*
G74*
G01*
G54D12*
X1293Y-4635D02*
X1406Y-4635D01*
X1518Y-4691D01*
X1574Y-4748D01*
X1631Y-4860D01*
X1687Y-5085D01*
X1687Y-5366D01*
X1631Y-5591D01*
X1574Y-5704D01*
X1518Y-5760D01*
X1406Y-5816D01*
X1293Y-5816D01*
X1181Y-5760D01*
X1124Y-5704D01*
X1068Y-5591D01*
X1012Y-5366D01*
X1012Y-5085D01*
X1068Y-4860D01*
X1124Y-4748D01*
X1181Y-4691D01*
X1293Y-4635D01*
X2193Y-5704D02*
X2249Y-5760D01*
X2193Y-5816D01*
X2137Y-5760D01*
X2193Y-5704D01*
X2193Y-5816D01*
X2924Y-5141D02*
X2812Y-5085D01*
X2755Y-5029D01*
X2699Y-4916D01*
X2699Y-4860D01*
X2755Y-4748D01*
X2812Y-4691D01*
X2924Y-4635D01*
X3149Y-4635D01*
X3262Y-4691D01*
X3318Y-4748D01*
X3374Y-4860D01*
X3374Y-4916D01*
X3318Y-5029D01*
X3262Y-5085D01*
X3149Y-5141D01*
X2924Y-5141D01*
X2812Y-5197D01*
X2755Y-5254D01*
X2699Y-5366D01*
X2699Y-5591D01*
X2755Y-5704D01*
X2812Y-5760D01*
X2924Y-5816D01*
X3149Y-5816D01*
X3262Y-5760D01*
X3318Y-5704D01*
X3374Y-5591D01*
X3374Y-5366D01*
X3318Y-5254D01*
X3262Y-5197D01*
X3149Y-5141D01*
X4499Y-5816D02*
X3824Y-5816D01*
X4161Y-5816D02*
X4161Y-4635D01*
X4049Y-4804D01*
X3937Y-4916D01*
X3824Y-4973D01*
X5005Y-5816D02*
X5005Y-5029D01*
X5005Y-5141D02*
X5061Y-5085D01*
X5174Y-5029D01*
X5343Y-5029D01*
X5455Y-5085D01*
X5511Y-5197D01*
X5511Y-5816D01*
X5511Y-5197D02*
X5568Y-5085D01*
X5680Y-5029D01*
X5849Y-5029D01*
X5961Y-5085D01*
X6017Y-5197D01*
X6017Y-5816D01*
X6580Y-5816D02*
X6580Y-5029D01*
X6580Y-5141D02*
X6636Y-5085D01*
X6749Y-5029D01*
X6917Y-5029D01*
X7030Y-5085D01*
X7086Y-5197D01*
X7086Y-5816D01*
X7086Y-5197D02*
X7142Y-5085D01*
X7255Y-5029D01*
X7424Y-5029D01*
X7536Y-5085D01*
X7592Y-5197D01*
X7592Y-5816D01*
X9898Y-4579D02*
X8886Y-6097D01*
X11417Y-4635D02*
X11529Y-4635D01*
X11642Y-4691D01*
X11698Y-4748D01*
X11754Y-4860D01*
X11811Y-5085D01*
X11811Y-5366D01*
X11754Y-5591D01*
X11698Y-5704D01*
X11642Y-5760D01*
X11529Y-5816D01*
X11417Y-5816D01*
X11304Y-5760D01*
X11248Y-5704D01*
X11192Y-5591D01*
X11136Y-5366D01*
X11136Y-5085D01*
X11192Y-4860D01*
X11248Y-4748D01*
X11304Y-4691D01*
X11417Y-4635D01*
X12317Y-5704D02*
X12373Y-5760D01*
X12317Y-5816D01*
X12260Y-5760D01*
X12317Y-5704D01*
X12317Y-5816D01*
X13104Y-4635D02*
X13217Y-4635D01*
X13329Y-4691D01*
X13385Y-4748D01*
X13442Y-4860D01*
X13498Y-5085D01*
X13498Y-5366D01*
X13442Y-5591D01*
X13385Y-5704D01*
X13329Y-5760D01*
X13217Y-5816D01*
X13104Y-5816D01*
X12992Y-5760D01*
X12935Y-5704D01*
X12879Y-5591D01*
X12823Y-5366D01*
X12823Y-5085D01*
X12879Y-4860D01*
X12935Y-4748D01*
X12992Y-4691D01*
X13104Y-4635D01*
X13892Y-4635D02*
X14623Y-4635D01*
X14229Y-5085D01*
X14398Y-5085D01*
X14510Y-5141D01*
X14566Y-5197D01*
X14623Y-5310D01*
X14623Y-5591D01*
X14566Y-5704D01*
X14510Y-5760D01*
X14398Y-5816D01*
X14060Y-5816D01*
X13948Y-5760D01*
X13892Y-5704D01*
X15073Y-4748D02*
X15129Y-4691D01*
X15241Y-4635D01*
X15523Y-4635D01*
X15635Y-4691D01*
X15691Y-4748D01*
X15748Y-4860D01*
X15748Y-4973D01*
X15691Y-5141D01*
X15016Y-5816D01*
X15748Y-5816D01*
X16197Y-4635D02*
X16197Y-4860D01*
X16647Y-4635D02*
X16647Y-4860D01*
X18391Y-6266D02*
X18335Y-6210D01*
X18222Y-6041D01*
X18166Y-5929D01*
X18110Y-5760D01*
X18053Y-5479D01*
X18053Y-5254D01*
X18110Y-4973D01*
X18166Y-4804D01*
X18222Y-4691D01*
X18335Y-4523D01*
X18391Y-4466D01*
X19347Y-4635D02*
X19122Y-4635D01*
X19010Y-4691D01*
X18953Y-4748D01*
X18841Y-4916D01*
X18785Y-5141D01*
X18785Y-5591D01*
X18841Y-5704D01*
X18897Y-5760D01*
X19010Y-5816D01*
X19235Y-5816D01*
X19347Y-5760D01*
X19403Y-5704D01*
X19460Y-5591D01*
X19460Y-5310D01*
X19403Y-5197D01*
X19347Y-5141D01*
X19235Y-5085D01*
X19010Y-5085D01*
X18897Y-5141D01*
X18841Y-5197D01*
X18785Y-5310D01*
X20472Y-4635D02*
X20247Y-4635D01*
X20134Y-4691D01*
X20078Y-4748D01*
X19966Y-4916D01*
X19910Y-5141D01*
X19910Y-5591D01*
X19966Y-5704D01*
X20022Y-5760D01*
X20134Y-5816D01*
X20359Y-5816D01*
X20472Y-5760D01*
X20528Y-5704D01*
X20584Y-5591D01*
X20584Y-5310D01*
X20528Y-5197D01*
X20472Y-5141D01*
X20359Y-5085D01*
X20134Y-5085D01*
X20022Y-5141D01*
X19966Y-5197D01*
X19910Y-5310D01*
X21991Y-5816D02*
X21991Y-4635D01*
X22497Y-5816D02*
X22497Y-5197D01*
X22440Y-5085D01*
X22328Y-5029D01*
X22159Y-5029D01*
X22047Y-5085D01*
X21991Y-5141D01*
X23228Y-5816D02*
X23115Y-5760D01*
X23059Y-5704D01*
X23003Y-5591D01*
X23003Y-5254D01*
X23059Y-5141D01*
X23115Y-5085D01*
X23228Y-5029D01*
X23397Y-5029D01*
X23509Y-5085D01*
X23565Y-5141D01*
X23622Y-5254D01*
X23622Y-5591D01*
X23565Y-5704D01*
X23509Y-5760D01*
X23397Y-5816D01*
X23228Y-5816D01*
X24296Y-5816D02*
X24184Y-5760D01*
X24128Y-5647D01*
X24128Y-4635D01*
X25196Y-5760D02*
X25084Y-5816D01*
X24859Y-5816D01*
X24746Y-5760D01*
X24690Y-5647D01*
X24690Y-5197D01*
X24746Y-5085D01*
X24859Y-5029D01*
X25084Y-5029D01*
X25196Y-5085D01*
X25253Y-5197D01*
X25253Y-5310D01*
X24690Y-5422D01*
X25703Y-5760D02*
X25815Y-5816D01*
X26040Y-5816D01*
X26152Y-5760D01*
X26209Y-5647D01*
X26209Y-5591D01*
X26152Y-5479D01*
X26040Y-5422D01*
X25871Y-5422D01*
X25759Y-5366D01*
X25703Y-5254D01*
X25703Y-5197D01*
X25759Y-5085D01*
X25871Y-5029D01*
X26040Y-5029D01*
X26152Y-5085D01*
X26602Y-6266D02*
X26659Y-6210D01*
X26771Y-6041D01*
X26827Y-5929D01*
X26884Y-5760D01*
X26940Y-5479D01*
X26940Y-5254D01*
X26884Y-4973D01*
X26827Y-4804D01*
X26771Y-4691D01*
X26659Y-4523D01*
X26602Y-4466D01*
X-250Y-6647D02*
X-250Y-7147D01*
X-500Y-6897D02*
X0Y-6897D01*
X1687Y-7375D02*
X1012Y-7375D01*
X1349Y-7375D02*
X1349Y-6194D01*
X1237Y-6363D01*
X1124Y-6475D01*
X1012Y-6532D01*
X2193Y-7263D02*
X2249Y-7319D01*
X2193Y-7375D01*
X2137Y-7319D01*
X2193Y-7263D01*
X2193Y-7375D01*
X2699Y-6307D02*
X2755Y-6250D01*
X2868Y-6194D01*
X3149Y-6194D01*
X3262Y-6250D01*
X3318Y-6307D01*
X3374Y-6419D01*
X3374Y-6532D01*
X3318Y-6700D01*
X2643Y-7375D01*
X3374Y-7375D01*
X3768Y-6194D02*
X4555Y-6194D01*
X4049Y-7375D01*
X5005Y-7375D02*
X5005Y-6588D01*
X5005Y-6700D02*
X5061Y-6644D01*
X5174Y-6588D01*
X5343Y-6588D01*
X5455Y-6644D01*
X5511Y-6757D01*
X5511Y-7375D01*
X5511Y-6757D02*
X5568Y-6644D01*
X5680Y-6588D01*
X5849Y-6588D01*
X5961Y-6644D01*
X6017Y-6757D01*
X6017Y-7375D01*
X6580Y-7375D02*
X6580Y-6588D01*
X6580Y-6700D02*
X6636Y-6644D01*
X6749Y-6588D01*
X6917Y-6588D01*
X7030Y-6644D01*
X7086Y-6757D01*
X7086Y-7375D01*
X7086Y-6757D02*
X7142Y-6644D01*
X7255Y-6588D01*
X7424Y-6588D01*
X7536Y-6644D01*
X7592Y-6757D01*
X7592Y-7375D01*
X9898Y-6138D02*
X8886Y-7656D01*
X11417Y-6194D02*
X11529Y-6194D01*
X11642Y-6250D01*
X11698Y-6307D01*
X11754Y-6419D01*
X11811Y-6644D01*
X11811Y-6925D01*
X11754Y-7150D01*
X11698Y-7263D01*
X11642Y-7319D01*
X11529Y-7375D01*
X11417Y-7375D01*
X11304Y-7319D01*
X11248Y-7263D01*
X11192Y-7150D01*
X11136Y-6925D01*
X11136Y-6644D01*
X11192Y-6419D01*
X11248Y-6307D01*
X11304Y-6250D01*
X11417Y-6194D01*
X12317Y-7263D02*
X12373Y-7319D01*
X12317Y-7375D01*
X12260Y-7319D01*
X12317Y-7263D01*
X12317Y-7375D01*
X13104Y-6194D02*
X13217Y-6194D01*
X13329Y-6250D01*
X13385Y-6307D01*
X13442Y-6419D01*
X13498Y-6644D01*
X13498Y-6925D01*
X13442Y-7150D01*
X13385Y-7263D01*
X13329Y-7319D01*
X13217Y-7375D01*
X13104Y-7375D01*
X12992Y-7319D01*
X12935Y-7263D01*
X12879Y-7150D01*
X12823Y-6925D01*
X12823Y-6644D01*
X12879Y-6419D01*
X12935Y-6307D01*
X12992Y-6250D01*
X13104Y-6194D01*
X14566Y-6194D02*
X14004Y-6194D01*
X13948Y-6757D01*
X14004Y-6700D01*
X14116Y-6644D01*
X14398Y-6644D01*
X14510Y-6700D01*
X14566Y-6757D01*
X14623Y-6869D01*
X14623Y-7150D01*
X14566Y-7263D01*
X14510Y-7319D01*
X14398Y-7375D01*
X14116Y-7375D01*
X14004Y-7319D01*
X13948Y-7263D01*
X15354Y-6194D02*
X15466Y-6194D01*
X15579Y-6250D01*
X15635Y-6307D01*
X15691Y-6419D01*
X15748Y-6644D01*
X15748Y-6925D01*
X15691Y-7150D01*
X15635Y-7263D01*
X15579Y-7319D01*
X15466Y-7375D01*
X15354Y-7375D01*
X15241Y-7319D01*
X15185Y-7263D01*
X15129Y-7150D01*
X15073Y-6925D01*
X15073Y-6644D01*
X15129Y-6419D01*
X15185Y-6307D01*
X15241Y-6250D01*
X15354Y-6194D01*
X16197Y-6194D02*
X16197Y-6419D01*
X16647Y-6194D02*
X16647Y-6419D01*
X18391Y-7825D02*
X18335Y-7769D01*
X18222Y-7600D01*
X18166Y-7488D01*
X18110Y-7319D01*
X18053Y-7038D01*
X18053Y-6813D01*
X18110Y-6532D01*
X18166Y-6363D01*
X18222Y-6250D01*
X18335Y-6082D01*
X18391Y-6025D01*
X18728Y-6194D02*
X19460Y-6194D01*
X19066Y-6644D01*
X19235Y-6644D01*
X19347Y-6700D01*
X19403Y-6757D01*
X19460Y-6869D01*
X19460Y-7150D01*
X19403Y-7263D01*
X19347Y-7319D01*
X19235Y-7375D01*
X18897Y-7375D01*
X18785Y-7319D01*
X18728Y-7263D01*
X20866Y-7375D02*
X20866Y-6194D01*
X21372Y-7375D02*
X21372Y-6757D01*
X21316Y-6644D01*
X21203Y-6588D01*
X21034Y-6588D01*
X20922Y-6644D01*
X20866Y-6700D01*
X22103Y-7375D02*
X21991Y-7319D01*
X21934Y-7263D01*
X21878Y-7150D01*
X21878Y-6813D01*
X21934Y-6700D01*
X21991Y-6644D01*
X22103Y-6588D01*
X22272Y-6588D01*
X22384Y-6644D01*
X22440Y-6700D01*
X22497Y-6813D01*
X22497Y-7150D01*
X22440Y-7263D01*
X22384Y-7319D01*
X22272Y-7375D01*
X22103Y-7375D01*
X23172Y-7375D02*
X23059Y-7319D01*
X23003Y-7206D01*
X23003Y-6194D01*
X24071Y-7319D02*
X23959Y-7375D01*
X23734Y-7375D01*
X23622Y-7319D01*
X23565Y-7206D01*
X23565Y-6757D01*
X23622Y-6644D01*
X23734Y-6588D01*
X23959Y-6588D01*
X24071Y-6644D01*
X24128Y-6757D01*
X24128Y-6869D01*
X23565Y-6982D01*
X24578Y-7319D02*
X24690Y-7375D01*
X24915Y-7375D01*
X25028Y-7319D01*
X25084Y-7206D01*
X25084Y-7150D01*
X25028Y-7038D01*
X24915Y-6982D01*
X24746Y-6982D01*
X24634Y-6925D01*
X24578Y-6813D01*
X24578Y-6757D01*
X24634Y-6644D01*
X24746Y-6588D01*
X24915Y-6588D01*
X25028Y-6644D01*
X25478Y-7825D02*
X25534Y-7769D01*
X25646Y-7600D01*
X25703Y-7488D01*
X25759Y-7319D01*
X25815Y-7038D01*
X25815Y-6813D01*
X25759Y-6532D01*
X25703Y-6363D01*
X25646Y-6250D01*
X25534Y-6082D01*
X25478Y-6025D01*
G54D11*
X-87Y-8668D02*
X-87Y-8244D01*
X-512Y-8244D01*
X-512Y-8668D01*
X-87Y-8668D01*
G54D12*
X1687Y-8934D02*
X1012Y-8934D01*
X1349Y-8934D02*
X1349Y-7753D01*
X1237Y-7922D01*
X1124Y-8034D01*
X1012Y-8091D01*
X2193Y-8822D02*
X2249Y-8878D01*
X2193Y-8934D01*
X2137Y-8878D01*
X2193Y-8822D01*
X2193Y-8934D01*
X3318Y-7753D02*
X2755Y-7753D01*
X2699Y-8316D01*
X2755Y-8259D01*
X2868Y-8203D01*
X3149Y-8203D01*
X3262Y-8259D01*
X3318Y-8316D01*
X3374Y-8428D01*
X3374Y-8709D01*
X3318Y-8822D01*
X3262Y-8878D01*
X3149Y-8934D01*
X2868Y-8934D01*
X2755Y-8878D01*
X2699Y-8822D01*
X3824Y-7866D02*
X3880Y-7809D01*
X3993Y-7753D01*
X4274Y-7753D01*
X4386Y-7809D01*
X4443Y-7866D01*
X4499Y-7978D01*
X4499Y-8091D01*
X4443Y-8259D01*
X3768Y-8934D01*
X4499Y-8934D01*
X5005Y-8934D02*
X5005Y-8147D01*
X5005Y-8259D02*
X5061Y-8203D01*
X5174Y-8147D01*
X5343Y-8147D01*
X5455Y-8203D01*
X5511Y-8316D01*
X5511Y-8934D01*
X5511Y-8316D02*
X5568Y-8203D01*
X5680Y-8147D01*
X5849Y-8147D01*
X5961Y-8203D01*
X6017Y-8316D01*
X6017Y-8934D01*
X6580Y-8934D02*
X6580Y-8147D01*
X6580Y-8259D02*
X6636Y-8203D01*
X6749Y-8147D01*
X6917Y-8147D01*
X7030Y-8203D01*
X7086Y-8316D01*
X7086Y-8934D01*
X7086Y-8316D02*
X7142Y-8203D01*
X7255Y-8147D01*
X7424Y-8147D01*
X7536Y-8203D01*
X7592Y-8316D01*
X7592Y-8934D01*
X9898Y-7697D02*
X8886Y-9215D01*
X11417Y-7753D02*
X11529Y-7753D01*
X11642Y-7809D01*
X11698Y-7866D01*
X11754Y-7978D01*
X11811Y-8203D01*
X11811Y-8484D01*
X11754Y-8709D01*
X11698Y-8822D01*
X11642Y-8878D01*
X11529Y-8934D01*
X11417Y-8934D01*
X11304Y-8878D01*
X11248Y-8822D01*
X11192Y-8709D01*
X11136Y-8484D01*
X11136Y-8203D01*
X11192Y-7978D01*
X11248Y-7866D01*
X11304Y-7809D01*
X11417Y-7753D01*
X12317Y-8822D02*
X12373Y-8878D01*
X12317Y-8934D01*
X12260Y-8878D01*
X12317Y-8822D01*
X12317Y-8934D01*
X13104Y-7753D02*
X13217Y-7753D01*
X13329Y-7809D01*
X13385Y-7866D01*
X13442Y-7978D01*
X13498Y-8203D01*
X13498Y-8484D01*
X13442Y-8709D01*
X13385Y-8822D01*
X13329Y-8878D01*
X13217Y-8934D01*
X13104Y-8934D01*
X12992Y-8878D01*
X12935Y-8822D01*
X12879Y-8709D01*
X12823Y-8484D01*
X12823Y-8203D01*
X12879Y-7978D01*
X12935Y-7866D01*
X12992Y-7809D01*
X13104Y-7753D01*
X14510Y-7753D02*
X14285Y-7753D01*
X14173Y-7809D01*
X14116Y-7866D01*
X14004Y-8034D01*
X13948Y-8259D01*
X13948Y-8709D01*
X14004Y-8822D01*
X14060Y-8878D01*
X14173Y-8934D01*
X14398Y-8934D01*
X14510Y-8878D01*
X14566Y-8822D01*
X14623Y-8709D01*
X14623Y-8428D01*
X14566Y-8316D01*
X14510Y-8259D01*
X14398Y-8203D01*
X14173Y-8203D01*
X14060Y-8259D01*
X14004Y-8316D01*
X13948Y-8428D01*
X15354Y-7753D02*
X15466Y-7753D01*
X15579Y-7809D01*
X15635Y-7866D01*
X15691Y-7978D01*
X15748Y-8203D01*
X15748Y-8484D01*
X15691Y-8709D01*
X15635Y-8822D01*
X15579Y-8878D01*
X15466Y-8934D01*
X15354Y-8934D01*
X15241Y-8878D01*
X15185Y-8822D01*
X15129Y-8709D01*
X15073Y-8484D01*
X15073Y-8203D01*
X15129Y-7978D01*
X15185Y-7866D01*
X15241Y-7809D01*
X15354Y-7753D01*
X16197Y-7753D02*
X16197Y-7978D01*
X16647Y-7753D02*
X16647Y-7978D01*
X18391Y-9384D02*
X18335Y-9328D01*
X18222Y-9159D01*
X18166Y-9047D01*
X18110Y-8878D01*
X18053Y-8597D01*
X18053Y-8372D01*
X18110Y-8091D01*
X18166Y-7922D01*
X18222Y-7809D01*
X18335Y-7641D01*
X18391Y-7584D01*
X19010Y-8259D02*
X18897Y-8203D01*
X18841Y-8147D01*
X18785Y-8034D01*
X18785Y-7978D01*
X18841Y-7866D01*
X18897Y-7809D01*
X19010Y-7753D01*
X19235Y-7753D01*
X19347Y-7809D01*
X19403Y-7866D01*
X19460Y-7978D01*
X19460Y-8034D01*
X19403Y-8147D01*
X19347Y-8203D01*
X19235Y-8259D01*
X19010Y-8259D01*
X18897Y-8316D01*
X18841Y-8372D01*
X18785Y-8484D01*
X18785Y-8709D01*
X18841Y-8822D01*
X18897Y-8878D01*
X19010Y-8934D01*
X19235Y-8934D01*
X19347Y-8878D01*
X19403Y-8822D01*
X19460Y-8709D01*
X19460Y-8484D01*
X19403Y-8372D01*
X19347Y-8316D01*
X19235Y-8259D01*
X20866Y-8934D02*
X20866Y-7753D01*
X21372Y-8934D02*
X21372Y-8316D01*
X21316Y-8203D01*
X21203Y-8147D01*
X21034Y-8147D01*
X20922Y-8203D01*
X20866Y-8259D01*
X22103Y-8934D02*
X21991Y-8878D01*
X21934Y-8822D01*
X21878Y-8709D01*
X21878Y-8372D01*
X21934Y-8259D01*
X21991Y-8203D01*
X22103Y-8147D01*
X22272Y-8147D01*
X22384Y-8203D01*
X22440Y-8259D01*
X22497Y-8372D01*
X22497Y-8709D01*
X22440Y-8822D01*
X22384Y-8878D01*
X22272Y-8934D01*
X22103Y-8934D01*
X23172Y-8934D02*
X23059Y-8878D01*
X23003Y-8766D01*
X23003Y-7753D01*
X24071Y-8878D02*
X23959Y-8934D01*
X23734Y-8934D01*
X23622Y-8878D01*
X23565Y-8766D01*
X23565Y-8316D01*
X23622Y-8203D01*
X23734Y-8147D01*
X23959Y-8147D01*
X24071Y-8203D01*
X24128Y-8316D01*
X24128Y-8428D01*
X23565Y-8541D01*
X24578Y-8878D02*
X24690Y-8934D01*
X24915Y-8934D01*
X25028Y-8878D01*
X25084Y-8766D01*
X25084Y-8709D01*
X25028Y-8597D01*
X24915Y-8541D01*
X24746Y-8541D01*
X24634Y-8484D01*
X24578Y-8372D01*
X24578Y-8316D01*
X24634Y-8203D01*
X24746Y-8147D01*
X24915Y-8147D01*
X25028Y-8203D01*
X25478Y-9384D02*
X25534Y-9328D01*
X25646Y-9159D01*
X25703Y-9047D01*
X25759Y-8878D01*
X25815Y-8597D01*
X25815Y-8372D01*
X25759Y-8091D01*
X25703Y-7922D01*
X25646Y-7809D01*
X25534Y-7641D01*
X25478Y-7584D01*
M02*
